# xmcd
#
# Track frame offsets: 
#        150
#        16125
#        31565
#        45975
#        60145
#        81195
#        96857
#        114627
#        130807
#        143915
#
# Disc length: 2107 seconds
#
# Revision: 2
# Processed by: cddbd v1.4PL0 Copyright (c) Steve Scherf et al.
# Submitted via: ExactAudioCopy v0.90b3
#
DISCID=6e08390a
DTITLE=Earl Thomas Conley - Don't Make It Easy For Me
DYEAR=1900
DGENRE=Country
TTITLE0=Don't Make It Easy For Me
TTITLE1=Your Love's On The Line
TTITLE2=Holding Her And Loving You
TTITLE3=You Can't Go On (Like A Rolling Stone)
TTITLE4=Crowd Around The Corner
TTITLE5=Ball And Chain
TTITLE6=Angel In Disguise
TTITLE7=Under Control
TTITLE8=Changes Of Love
TTITLE9=Home So Fine
EXTD=
EXTT0=
EXTT1=
EXTT2=
EXTT3=
EXTT4=
EXTT5=
EXTT6=
EXTT7=
EXTT8=
EXTT9=
PLAYORDER=
